# xmcd
#
# Track frame offsets: 
#        150
#        12768
#        29049
#        40795
#        62593
#        87975
#        116360
#        135930
#        166295
#        185675
#
# Disc length: 2674 seconds
#
# Revision: 0
# Processed by: cddbd v1.5.2PL0 Copyright (c) Steve Scherf et al.
# Submitted via: ExactAudioCopy v0.95b4
#
DISCID=790a700a
DTITLE=James Booker - Blues and Ragtime From New Orleans
DYEAR=1976
DGENRE=NOLA
TTITLE0=Dr. John Medley
TTITLE1=Tico Tico
TTITLE2=Wake Up Mr. Moon Man
TTITLE3=Save Your Love For Me
TTITLE4=All By Myself
TTITLE5=People Get Ready
TTITLE6=Besame Mucho
TTITLE7=Love Monkey
TTITLE8=Ora
TTITLE9=Baby Won't You Please Come Home
EXTD=
EXTT0=
EXTT1=
EXTT2=
EXTT3=
EXTT4=
EXTT5=
EXTT6=
EXTT7=
EXTT8=
EXTT9=
PLAYORDER=
